<svg id="_x33_0" enable-background="new 0 0 64 64" height="512" viewBox="0 0 64 64" width="512" xmlns="http://www.w3.org/2000/svg" xmlns:xlink="http://www.w3.org/1999/xlink"><linearGradient id="SVGID_1_" gradientUnits="userSpaceOnUse" x1="31.793" x2="31.793" y1="63" y2="1"><stop offset="0" stop-color="#9f2fff"/><stop offset="1" stop-color="#0bb1d3"/></linearGradient><path d="m37 29h-2c-1.103 0-2 .897-2 2v6c0 1.103.897 2 2 2h2c1.103 0 2-.897 2-2v-6c0-1.103-.897-2-2-2zm0 2v2h-2v-2zm-2 6v-2h2.001v2zm10-4h2v2h-2zm4 0h2v2h-2zm6 2h-2v-2h2zm-50.32 9.094-3.68 4.906h28.967l.002.066c.035 1.084.913 1.934 1.998 1.934h3.033v6c0 3.309 2.691 6 6 6s6-2.691 6-6v-8h6v4.184c-1.161.414-2 1.514-2 2.816 0 1.654 1.346 3 3 3s3-1.346 3-3c0-1.302-.839-2.402-2-2.816v-4.184h1c3.859 0 7-3.14 7-7v-20c0-3.86-3.141-7-7-7h-9.426c.271-.955.426-1.959.426-3 0-6.065-4.935-11-11-11s-11 4.935-11 11c0 1.041.155 2.045.426 3h-24.426l3.68 4.906-4.094 4.094 4 4-4 4 4 4-4 4zm22.32-32.094c0-.338.022-.671.059-1h17.882c.037.329.059.662.059 1s-.022.671-.059 1h-17.882c-.037-.329-.059-.662-.059-1zm26 31h-6v-1c0-1.654 1.346-3 3-3s3 1.346 3 3zm-3-6c-2.757 0-5 2.243-5 5v1h-2.767l.733-22h13.034c.552 0 1 .449 1 1v20c0 .551-.448 1-1 1h-1v-1c0-2.757-2.243-5-5-5zm-17-22v2h-2v-2zm-2 4h2v1.475c-.711-.252-1.384-.583-2-.997zm4 0h2v1.941c-.329.037-.662.059-1 .059s-.671-.022-1-.059zm4 0h2v.478c-.616.413-1.289.744-2 .997zm0-2v-2h2v2zm-2 0h-2v-2h2zm-5.939 4.815c1.487.752 3.162 1.185 4.939 1.185s3.452-.433 4.939-1.185l-.772 23.185h-8.333zm11.106 23.185h2.833v2h-2.9zm1.311-28h-.478v-2h1.475c-.252.711-.583 1.384-.997 2zm0-10c.413.616.744 1.289.997 2h-1.475v-2zm-2.478-2h-2v-1.475c.711.252 1.384.583 2 .997zm0 2v2h-2v-2zm-4 2h-2v-2h2zm-4 0h-2v-2h2zm-2-4v-.478c.616-.413 1.289-.744 2-.997v1.475zm-2 2v2h-1.475c.252-.711.583-1.384.997-2zm0 8v2h-.478c-.413-.616-.744-1.289-.997-2zm.033 6 .733 22h-2.766v-22zm2.867 26h8.2l-.067 2h-8.066zm13.1 10c0 2.206-1.794 4-4 4s-4-1.794-4-4v-6h3.033c1.085 0 1.963-.85 1.998-1.934l.002-.066h2.967zm2-10v-2h6v2zm7 10c-.552 0-1-.449-1-1s.448-1 1-1 1 .449 1 1-.448 1-1 1zm2-40c2.757 0 5 2.243 5 5v20c0 2.757-2.243 5-5 5h-1v-2h1c1.654 0 3-1.346 3-3v-20c0-1.654-1.346-3-3-3h-11.521c.507-.613.941-1.286 1.307-2zm-19-13.941v1.941h-2v-1.941c.329-.037.662-.059 1-.059s.671.022 1 .059zm-9.479 15.941h-2.521v26h4.833l.067 2h-6.9v-30h3.214c.366.714.8 1.387 1.307 2zm-24.107 13 4-4-4-4 3.906-3.906-2.32-3.094h16v30h-16l2.32-3.094-3.906-3.906 4-4zm15.586-13h-10v18h10zm-2 2v2h-6v-2zm-6 6v-2h6v2zm6 2v2h-6v-2zm-6 6v-2h6v2zm0 8h-2v-4h2zm2-4h2v6h-2zm4 0h2v2h-2zm0 4h2v2h-2z" fill="url(#SVGID_1_)"/></svg>